<svg xmlns:xlink="http://www.w3.org/1999/xlink" xmlns="http://www.w3.org/2000/svg" viewBox="0 0 174 21" width="245"  height="30" ><path fill="#FFFFFF" fill-rule="evenodd" d="M70.78 7.403c1.254 0 2.297.529 2.89 1.454V7.622h1.635v8.686c0 3.157-1.511 4.692-4.62 4.692-1.931 0-4.029-.744-4.124-2.83l-.003-.065h1.728l.004.057c.079 1.165 1.603 1.475 2.49 1.475 2.389 0 2.89-1.91 2.89-3.511v-.454c-.53.983-1.706 1.609-3.042 1.609-3.283 0-4.448-2.607-4.448-4.838 0-2.325 1.205-5.04 4.6-5.04zm98.518.044c2.814 0 4.702 1.983 4.702 4.936 0 2.952-1.888 4.935-4.702 4.935-1.368 0-2.59-.545-3.225-1.43v4.667h-1.732v-12.9h1.732v1.223c.636-.872 1.886-1.431 3.225-1.431zm-11.47-.108c3.701 0 5.016 2.686 5.016 4.986 0 3.035-1.967 4.996-5.016 4.996-3.043 0-5.008-1.961-5.008-4.996 0-2.3 1.31-4.986 5.008-4.986zm-97.944.003c1.487 0 3.982.348 3.982 2.683v4.967c0 .51.203.728.68.728.173 0 .408-.039.55-.074l.07-.018v1.358l-.048.01c-.454.093-.994.107-1.276.107-.687 0-1.341-.149-1.503-1.196-.76.97-2.377 1.412-3.599 1.412-3.173 0-3.516-1.987-3.516-2.841 0-1.805 1.041-2.627 3.713-2.933l1.854-.208c.95-.11 1.43-.302 1.43-1.05 0-1.016-.718-1.45-2.401-1.45-1.677 0-2.547.594-2.585 1.767l-.003.06h-1.641l.005-.068c.2-2.22 1.564-3.254 4.288-3.254zm50.565 0c2.486 0 4.16 1.287 4.485 3.445l.01.07h-1.838l-.01-.05c-.198-1.2-1.097-1.861-2.535-1.861-1.876 0-2.952 1.23-2.952 3.38 0 2.158 1.076 3.394 2.952 3.394 1.429 0 2.22-.67 2.571-2.171l.013-.047h1.839l-.018.077c-.627 2.55-2.055 3.74-4.497 3.74-3.47 0-4.71-2.552-4.71-4.939 0-3.06 1.842-5.038 4.69-5.038zM136.1 4c1.44 0 4.81.39 5.007 4l.004.065h-1.835l-.008-.051c-.146-.974-.658-2.268-3.401-2.268-1.317 0-2.644.617-2.644 1.995 0 .848.59 1.353 1.857 1.588l2.853.527c.88.168 3.545.673 3.545 3.286 0 3.77-3.535 4.177-5.056 4.177-2.015 0-5.399-.587-5.399-4.515v-.061h1.835l.003.06c.042 2.408 2.332 2.767 3.693 2.767 1.899 0 3.079-.79 3.079-2.059 0-.994-.632-1.533-2.113-1.805l-2.633-.48c-1.505-.267-3.503-.905-3.503-3.343 0-2.396 1.807-3.883 4.716-3.883zM88.77 7.342c1.49 0 3.984.348 3.984 2.683v4.967c0 .51.204.728.68.728.18 0 .41-.04.55-.074l.069-.017v1.357l-.047.01c-.47.096-1.048.107-1.273.107-.685 0-1.338-.149-1.508-1.196-.76.97-2.376 1.412-3.597 1.412-3.182 0-3.524-1.987-3.524-2.841 0-1.804 1.041-2.625 3.715-2.933l1.853-.208c.953-.11 1.434-.302 1.434-1.05 0-1.016-.716-1.45-2.396-1.45s-2.549.594-2.585 1.767l-.002.06h-1.65l.007-.068c.198-2.22 1.563-3.254 4.29-3.254zm32.665-.003c2.26 0 4.675 1.39 4.675 5.292v.287h-7.842c.155 1.837 1.659 2.798 3.083 2.798.607 0 2.086-.157 2.698-1.605l.015-.035h1.85l-.03.085c-.857 2.326-2.86 3.155-4.45 3.155-3.047 0-5.017-1.958-5.017-4.985 0-2.303 1.314-4.992 5.018-4.992zm-94.54 0c2.263 0 4.681 1.39 4.681 5.292v.287h-7.845c.163 1.837 1.664 2.798 3.082 2.798.609 0 2.089-.157 2.702-1.605l.015-.035h1.847l-.032.085c-.86 2.326-2.863 3.155-4.45 3.155-3.043 0-5.01-1.958-5.01-4.985 0-2.303 1.313-4.992 5.01-4.992zM13.667 4.212v4.75c.914-1.406 2.462-1.62 3.317-1.62 2.314 0 3.641 1.21 3.641 3.318v6.337H18.88v-5.99c0-1.387-.807-2.061-2.466-2.061-1.368 0-2.746.829-2.746 2.683v5.368h-1.74V4.212h1.74zm33.35.105v1.741H39.74V9.65h6.938v1.741H39.74v5.606h-1.837V4.317h9.115zm-36.38 0v1.741H6.243v10.94H4.405V6.057H0V4.317h10.639zm133.856-.105v4.743c.922-1.4 2.462-1.613 3.313-1.613 2.35 0 3.645 1.179 3.645 3.318v6.337h-1.747v-5.99c0-1.368-.83-2.061-2.462-2.061-1.37 0-2.75.829-2.75 2.683v5.368h-1.743V4.212h1.744zM82.12 7.34c.394 0 .623.017.945.113l.04.012v2.02l-.069-.019c-.406-.104-.705-.172-1.14-.172-1.68 0-2.682 1.107-2.682 2.96v4.744h-1.741V7.655h1.74v1.587c.878-1.568 2.059-1.903 2.907-1.903zm-28.882 0c.391 0 .61.017.944.113l.042.012v2.02l-.07-.019c-.395-.1-.707-.172-1.15-.172-1.678 0-2.68 1.107-2.68 2.96v4.744h-1.733V7.655h1.732v1.594c.872-1.574 2.06-1.91 2.915-1.91zm47.282 0c2.341 0 3.631 1.18 3.631 3.32v6.338h-1.735V11.01c0-1.37-.83-2.064-2.47-2.064-1.365 0-2.745.829-2.745 2.68v5.37H95.46V7.656h1.742v1.307c.915-1.41 2.463-1.623 3.319-1.623zm-9.414 4.92c-.255.233-.677.355-1.528.459l-1.844.253c-1.36.186-1.89.593-1.89 1.45 0 .836.777 1.398 1.934 1.398 1.899 0 3.328-1.086 3.328-2.526zm-28.886.001c-.255.233-.678.355-1.533.458l-1.837.253c-1.358.185-1.888.592-1.888 1.45 0 .836.773 1.398 1.925 1.398 1.9 0 3.333-1.086 3.333-2.526zm8.637-3.366c-1.786 0-2.853 1.258-2.853 3.366 0 .828.196 3.53 2.718 3.53 2.118 0 2.872-1.853 2.872-3.586 0-1.6-.72-3.31-2.737-3.31zm98.227.156c-2.282 0-3.097 1.721-3.097 3.333 0 2.059 1.188 3.337 3.097 3.337 1.897 0 3.075-1.278 3.075-3.337 0-1.612-.808-3.333-3.075-3.333zm-11.257-.104c-2.335 0-3.168 1.745-3.168 3.38 0 1.64.833 3.394 3.168 3.394 2.336 0 3.166-1.753 3.166-3.395 0-1.634-.83-3.38-3.166-3.38zm-131.014 0c-1.565 0-2.774.993-3.03 2.48h5.945c-.254-1.532-1.366-2.48-2.915-2.48zm94.538 0c-1.564 0-2.773.993-3.028 2.48h5.94c-.252-1.532-1.36-2.48-2.912-2.48z"></path></svg>